<svg width="52" height="52" viewBox="0 0 52 52" fill="none" xmlns="http://www.w3.org/2000/svg">
<circle cx="26" cy="26" r="26" fill="#E0EDFA"/>
<path d="M35.8337 27.146V19.7835C35.8337 17.6133 35.8337 16.5282 35.4113 15.6993C35.0398 14.9702 34.447 14.3774 33.7179 14.0058C32.889 13.5835 31.8039 13.5835 29.6337 13.5835H21.367C19.1968 13.5835 18.1117 13.5835 17.2828 14.0058C16.5537 14.3774 15.9609 14.9702 15.5893 15.6993C15.167 16.5282 15.167 17.6133 15.167 19.7835V33.2168C15.167 35.387 15.167 36.4721 15.5893 37.301C15.9609 38.0302 16.5537 38.623 17.2828 38.9945C18.1117 39.4168 19.1968 39.4168 21.367 39.4168H25.5003M28.0837 25.2085H20.3337M22.917 30.3752H20.3337M30.667 20.0418H20.3337M28.7295 35.5418L31.3128 38.1252L37.1253 32.3127" stroke="#54ACFF" stroke-width="2" stroke-linecap="round" stroke-linejoin="round"/>
</svg>
