<svg width="52" height="52" viewBox="0 0 52 52" fill="none" xmlns="http://www.w3.org/2000/svg">
<circle cx="26" cy="26" r="26" fill="#E0EDFA"/>
<path d="M31.3127 31.6667L37.771 38.125M37.771 31.6667L31.3127 38.125M25.5002 31.0208H19.6877C17.8851 31.0208 16.9838 31.0208 16.2504 31.2433C14.5991 31.7442 13.3069 33.0364 12.806 34.6877C12.5835 35.4211 12.5835 36.3224 12.5835 38.125M28.7293 20.6875C28.7293 23.8977 26.127 26.5 22.9168 26.5C19.7067 26.5 17.1043 23.8977 17.1043 20.6875C17.1043 17.4773 19.7067 14.875 22.9168 14.875C26.127 14.875 28.7293 17.4773 28.7293 20.6875Z" stroke="#54ACFF" stroke-width="2" stroke-linecap="round" stroke-linejoin="round"/>
</svg>
