<svg width="32" height="33" viewBox="0 0 32 33" fill="none" xmlns="http://www.w3.org/2000/svg">
<rect x="0.224609" y="0.83667" width="31.2245" height="31.2245" rx="15.6122" fill="#E6E6E6"/>
<path d="M13.6683 9.94385H18.005M9.33154 12.1122H22.3417M20.8962 12.1122L20.3893 19.7154C20.3132 20.8562 20.2752 21.4266 20.0288 21.859C19.8119 22.2398 19.4847 22.5459 19.0904 22.737C18.6425 22.9541 18.0709 22.9541 16.9276 22.9541H14.7457C13.6024 22.9541 13.0308 22.9541 12.5829 22.737C12.1886 22.5459 11.8614 22.2398 11.6445 21.859C11.3981 21.4266 11.3601 20.8562 11.284 19.7154L10.7771 12.1122M14.3911 15.3648V18.9787M17.2822 15.3648V18.9787" stroke="#333333" stroke-width="1.30102" stroke-linecap="round" stroke-linejoin="round"/>
</svg>
