<svg width="52" height="52" viewBox="0 0 52 52" fill="none" xmlns="http://www.w3.org/2000/svg">
<circle cx="26" cy="26" r="26" fill="#E0EDFA"/>
<path d="M26.7918 14.8752C26.7918 14.1618 26.2135 13.5835 25.5002 13.5835C24.7868 13.5835 24.2085 14.1618 24.2085 14.8752V29.8401L18.6635 24.2951C18.1591 23.7907 17.3412 23.7907 16.8368 24.2951C16.3324 24.7996 16.3324 25.6174 16.8368 26.1218L24.5868 33.8718C25.0912 34.3763 25.9091 34.3763 26.4135 33.8718L34.1635 26.1218C34.6679 25.6174 34.6679 24.7996 34.1635 24.2951C33.6591 23.7907 32.8412 23.7907 32.3368 24.2951L26.7918 29.8401V14.8752Z" fill="#54ACFF"/>
<path d="M12.5835 38.1252C12.5835 37.4118 13.1618 36.8335 13.8752 36.8335H37.1252C37.8385 36.8335 38.4168 37.4118 38.4168 38.1252C38.4168 38.8385 37.8385 39.4168 37.1252 39.4168H13.8752C13.1618 39.4168 12.5835 38.8385 12.5835 38.1252Z" fill="#54ACFF"/>
</svg>
