<svg width="232" height="60" viewBox="0 0 232 60" fill="none" xmlns="http://www.w3.org/2000/svg">
<path d="M0 30C0 20.9446 0 16.4169 1.47937 12.8454C3.45186 8.08341 7.23526 4.3 11.9973 2.32751C15.5688 0.848145 20.0965 0.848145 29.1518 0.848145C38.2072 0.848145 42.7349 0.848145 46.3064 2.32751C51.0684 4.3 54.8518 8.08341 56.8243 12.8454C58.3037 16.4169 58.3037 20.9446 58.3037 30C58.3037 39.0553 58.3037 43.583 56.8243 47.1545C54.8518 51.9165 51.0684 55.7 46.3064 57.6724C42.7349 59.1518 38.2072 59.1518 29.1518 59.1518C20.0965 59.1518 15.5688 59.1518 11.9973 57.6724C7.23526 55.7 3.45186 51.9165 1.47937 47.1545C0 43.583 0 39.0553 0 30Z" fill="#54ACFF"/>
<path d="M7.22595 34.1867L22.7072 27.7728L32.9573 41.0814L35.5978 31.2268L25.3344 17.968L9.86647 24.3321L7.22595 34.1867Z" fill="#0D3B66"/>
<path d="M51.0768 24.8216L35.5955 31.2355L25.3455 17.9269L22.7049 27.7815L32.9683 41.0403L48.4363 34.6762L51.0768 24.8216Z" fill="white"/>
<path d="M68.021 43.0641L71.6685 16.9355H77.1046L74.1235 38.3294H85.1712L84.5048 43.0641H68.021Z" fill="#0D3B66"/>
<path d="M92.2864 43.485C91.0004 43.485 89.8781 43.2862 88.9195 42.8887C87.9608 42.4913 87.2126 41.9067 86.6749 41.1351C86.1605 40.3402 85.9033 39.3815 85.9033 38.2592C85.9033 36.9967 86.2189 35.9328 86.8502 35.0677C87.5049 34.1792 88.3817 33.4661 89.4806 32.9283C90.6029 32.3905 91.8655 32.0164 93.2684 31.806L99.3008 30.8591L98.915 34.717L94.0049 35.6288C93.2801 35.7691 92.6488 36.0263 92.111 36.4004C91.5966 36.7511 91.3394 37.2655 91.3394 37.9436C91.3394 38.5281 91.5499 38.9607 91.9707 39.2413C92.3916 39.4985 92.9294 39.627 93.584 39.627C94.4492 39.627 95.209 39.4283 95.8637 39.0308C96.5418 38.6333 97.0912 38.1073 97.5121 37.4526C97.9563 36.7979 98.2252 36.0848 98.3188 35.3132L98.9851 30.4382C99.0553 29.9004 98.9617 29.4445 98.7045 29.0704C98.4474 28.6963 98.0849 28.404 97.6173 28.1936C97.1497 27.9832 96.6353 27.878 96.0742 27.878C95.0688 27.878 94.1686 28.1585 93.3736 28.7197C92.5787 29.2574 91.9824 29.9472 91.5849 30.7889L87.5166 28.5794C88.0076 27.5039 88.6974 26.592 89.5858 25.8438C90.4743 25.0956 91.5031 24.5227 92.6722 24.1253C93.8412 23.7044 95.0805 23.494 96.3898 23.494C98.0031 23.494 99.4294 23.7979 100.669 24.4058C101.931 25.0137 102.89 25.8555 103.544 26.931C104.223 28.0065 104.456 29.2574 104.246 30.6837L102.527 43.0641H97.5822L98.0031 39.9778L99.406 39.8726C98.7513 40.7143 98.0616 41.404 97.3367 41.9418C96.6119 42.4796 95.8287 42.8654 94.9869 43.0992C94.1686 43.3564 93.2684 43.485 92.2864 43.485Z" fill="#0D3B66"/>
<path d="M105.509 43.0641L108.174 23.9148H113.084L112.593 27.7026L112.383 26.7206C112.991 25.5749 113.797 24.7566 114.803 24.2655C115.832 23.7512 116.989 23.494 118.275 23.494C119.748 23.494 120.999 23.8447 122.028 24.5461C123.056 25.2242 123.805 26.1477 124.272 27.3168C124.763 28.4859 124.904 29.7952 124.693 31.2449L123.045 43.0641H117.784L119.327 31.8762C119.491 30.7772 119.292 29.9004 118.731 29.2458C118.17 28.5677 117.375 28.2287 116.346 28.2287C115.668 28.2287 115.037 28.3806 114.452 28.6846C113.891 28.9886 113.423 29.4094 113.049 29.9472C112.675 30.485 112.43 31.128 112.313 31.8762L110.77 43.0641H105.509Z" fill="#0D3B66"/>
<path d="M135.868 43.485C134.021 43.485 132.361 43.0758 130.888 42.2574C129.438 41.4391 128.293 40.3168 127.451 38.8905C126.633 37.4643 126.223 35.851 126.223 34.0506C126.223 32.5776 126.504 31.1981 127.065 29.9121C127.626 28.6262 128.398 27.5039 129.38 26.5452C130.362 25.5866 131.496 24.8384 132.782 24.3006C134.091 23.7628 135.494 23.494 136.99 23.494C138.44 23.494 139.761 23.7512 140.954 24.2655C142.146 24.7566 143.151 25.4463 143.97 26.3348C144.788 27.2233 145.349 28.2637 145.653 29.4562L140.989 31.2799C140.731 30.3213 140.24 29.5731 139.516 29.0353C138.791 28.4976 137.926 28.2287 136.92 28.2287C135.868 28.2287 134.945 28.4976 134.15 29.0353C133.378 29.5731 132.77 30.2862 132.326 31.1747C131.905 32.0632 131.695 33.0218 131.695 34.0506C131.695 34.9859 131.87 35.8042 132.221 36.5056C132.571 37.2071 133.062 37.7565 133.694 38.154C134.348 38.5515 135.097 38.7502 135.938 38.7502C137.037 38.7502 137.996 38.458 138.814 37.8735C139.633 37.2889 140.24 36.5173 140.638 35.5587L145.092 37.6981C144.648 38.8204 143.97 39.8258 143.058 40.7143C142.169 41.5794 141.106 42.2574 139.866 42.7484C138.627 43.2395 137.294 43.485 135.868 43.485Z" fill="#0D3B66"/>
<path d="M156.633 43.485C154.693 43.485 153.009 43.0758 151.583 42.2574C150.157 41.4157 149.058 40.2817 148.286 38.8555C147.538 37.4292 147.164 35.851 147.164 34.1208C147.164 32.6477 147.421 31.2799 147.935 30.0173C148.45 28.7314 149.175 27.5974 150.11 26.6154C151.045 25.6333 152.132 24.8735 153.372 24.3357C154.611 23.7745 155.955 23.494 157.405 23.494C159.345 23.494 160.982 23.8798 162.315 24.6513C163.648 25.3995 164.653 26.4283 165.331 27.7377C166.033 29.047 166.383 30.5317 166.383 32.1918C166.383 32.636 166.348 33.0803 166.278 33.5245C166.208 33.9688 166.114 34.4481 165.997 34.9625H151.618L151.899 31.1046H163.262L160.631 32.8582C160.935 31.8762 160.994 30.9994 160.807 30.2278C160.62 29.4562 160.222 28.8483 159.614 28.404C159.03 27.9364 158.282 27.7026 157.37 27.7026C156.177 27.7026 155.23 28.0065 154.529 28.6145C153.827 29.2224 153.313 30.029 152.986 31.0344C152.682 32.0398 152.53 33.1504 152.53 34.3663C152.53 35.3249 152.693 36.1549 153.021 36.8564C153.348 37.5344 153.827 38.0488 154.459 38.3995C155.09 38.7503 155.85 38.9256 156.738 38.9256C157.697 38.9256 158.539 38.7269 159.264 38.3294C159.988 37.9319 160.55 37.4058 160.947 36.7512L165.086 38.8905C164.641 39.8258 163.998 40.6441 163.157 41.3456C162.315 42.0236 161.333 42.5497 160.211 42.9238C159.112 43.2979 157.919 43.485 156.633 43.485Z" fill="#0D3B66"/>
<path d="M178.564 43.485C177.138 43.485 175.84 43.2395 174.671 42.7484C173.525 42.2341 172.625 41.5092 171.97 40.574L172.602 39.5569L172.146 43.0641H167.165L170.883 16.5146H176.179L174.671 27.5623L173.303 26.44C174.005 25.4814 174.905 24.7566 176.004 24.2655C177.126 23.7512 178.365 23.494 179.721 23.494C181.498 23.494 183.076 23.9148 184.456 24.7566C185.835 25.5749 186.923 26.6972 187.718 28.1235C188.536 29.5263 188.945 31.1163 188.945 32.8932C188.945 34.3429 188.676 35.7107 188.139 36.9967C187.601 38.2826 186.853 39.4166 185.894 40.3986C184.959 41.3573 183.86 42.1172 182.597 42.6783C181.358 43.2161 180.014 43.485 178.564 43.485ZM178.003 38.7502C179.078 38.7502 180.025 38.4931 180.844 37.9787C181.662 37.4643 182.305 36.7628 182.773 35.8744C183.24 34.9859 183.474 33.9922 183.474 32.8932C183.474 31.9814 183.287 31.1747 182.913 30.4733C182.539 29.7718 182.013 29.2224 181.335 28.8249C180.68 28.4274 179.897 28.2287 178.985 28.2287C177.933 28.2287 176.997 28.4976 176.179 29.0353C175.384 29.5497 174.764 30.2512 174.32 31.1396C173.876 32.0281 173.654 33.0218 173.654 34.1208C173.654 35.0326 173.829 35.8393 174.18 36.5407C174.554 37.2422 175.068 37.7916 175.723 38.1891C176.378 38.5632 177.138 38.7502 178.003 38.7502Z" fill="#0D3B66"/>
<path d="M200.199 43.485C198.375 43.485 196.727 43.0875 195.254 42.2925C193.781 41.4742 192.612 40.3519 191.747 38.9256C190.881 37.4993 190.449 35.8744 190.449 34.0506C190.449 32.5776 190.729 31.1981 191.291 29.9121C191.852 28.6262 192.635 27.5039 193.64 26.5452C194.646 25.5866 195.803 24.8384 197.113 24.3006C198.422 23.7628 199.825 23.494 201.321 23.494C203.145 23.494 204.793 23.9031 206.266 24.7215C207.739 25.5164 208.897 26.6271 209.738 28.0533C210.604 29.4562 211.036 31.0812 211.036 32.9283C211.036 34.4013 210.756 35.7808 210.194 37.0668C209.633 38.3294 208.85 39.4517 207.845 40.4337C206.839 41.3923 205.682 42.1405 204.372 42.6783C203.063 43.2161 201.672 43.485 200.199 43.485ZM200.269 38.7502C201.321 38.7502 202.245 38.4931 203.04 37.9787C203.835 37.4409 204.454 36.7278 204.899 35.8393C205.343 34.9508 205.565 33.9571 205.565 32.8582C205.565 31.9463 205.39 31.1513 205.039 30.4733C204.688 29.7718 204.185 29.2224 203.531 28.8249C202.899 28.4274 202.14 28.2287 201.251 28.2287C200.199 28.2287 199.264 28.4976 198.445 29.0353C197.65 29.5497 197.031 30.2512 196.586 31.1396C196.142 32.0281 195.92 33.0218 195.92 34.1208C195.92 35.0326 196.095 35.8393 196.446 36.5407C196.797 37.2188 197.3 37.7565 197.954 38.154C198.609 38.5515 199.381 38.7502 200.269 38.7502Z" fill="#0D3B66"/>
<path d="M209.729 43.0641L217.866 33.3141L212.57 23.9148H218.287L222.32 31.3501H219.655L225.722 23.9148H232L223.934 33.4544L229.264 43.0641H223.653L219.55 35.6288H221.934L215.972 43.0641H209.729Z" fill="#0D3B66"/>
</svg>
