<svg width="29" height="30" viewBox="0 0 29 30" fill="none" xmlns="http://www.w3.org/2000/svg">
<path fill-rule="evenodd" clip-rule="evenodd" d="M14.4998 0.791504C6.65279 0.791504 0.291504 7.15279 0.291504 14.9998C0.291504 22.8469 6.65279 29.2082 14.4998 29.2082C22.3469 29.2082 28.7082 22.8469 28.7082 14.9998C28.7082 7.15279 22.3469 0.791504 14.4998 0.791504ZM21.2257 12.0382C21.7301 11.5338 21.7301 10.7159 21.2257 10.2115C20.7213 9.70706 19.9034 9.70706 19.399 10.2115L12.5623 17.0481L9.60068 14.0865C9.09626 13.5821 8.27842 13.5821 7.77399 14.0865C7.26956 14.5909 7.26956 15.4088 7.77399 15.9132L11.649 19.7882C12.1534 20.2926 12.9713 20.2926 13.4757 19.7882L21.2257 12.0382Z" fill="#16CB3E"/>
</svg>
