<svg width="52" height="52" viewBox="0 0 52 52" fill="none" xmlns="http://www.w3.org/2000/svg">
<circle cx="26" cy="26" r="26" fill="#E0EDFA"/>
<path d="M29.375 21.3333H21.1083C20.3849 21.3333 20.0232 21.3333 19.7469 21.1925C19.5039 21.0687 19.3063 20.8711 19.1824 20.6281C19.0417 20.3518 19.0417 19.9901 19.0417 19.2667V14.875M31.9583 38.125V29.8583C31.9583 29.1349 31.9583 28.7732 31.8175 28.4969C31.6937 28.2539 31.4961 28.0563 31.2531 27.9324C30.9768 27.7917 30.6151 27.7917 29.8917 27.7917H21.1083C20.3849 27.7917 20.0232 27.7917 19.7469 27.9324C19.5039 28.0563 19.3063 28.2539 19.1824 28.4969C19.0417 28.7732 19.0417 29.1349 19.0417 29.8583V38.125M37.125 23.0454V31.925C37.125 34.0952 37.125 35.1803 36.7026 36.0092C36.3311 36.7383 35.7383 37.3311 35.0092 37.7026C34.1803 38.125 33.0952 38.125 30.925 38.125H20.075C17.9048 38.125 16.8197 38.125 15.9908 37.7026C15.2617 37.3311 14.6689 36.7383 14.2973 36.0092C13.875 35.1803 13.875 34.0952 13.875 31.925V21.075C13.875 18.9048 13.875 17.8197 14.2973 16.9908C14.6689 16.2617 15.2617 15.6689 15.9908 15.2973C16.8197 14.875 17.9048 14.875 20.075 14.875H28.9546C29.5864 14.875 29.9024 14.875 30.1997 14.9464C30.4633 15.0097 30.7153 15.114 30.9464 15.2557C31.2071 15.4154 31.4305 15.6388 31.8773 16.0856L35.9144 20.1227C36.3612 20.5695 36.5846 20.7929 36.7443 21.0536C36.886 21.2847 36.9903 21.5367 37.0536 21.8003C37.125 22.0976 37.125 22.4136 37.125 23.0454Z" stroke="#54ACFF" stroke-width="2" stroke-linecap="round" stroke-linejoin="round"/>
</svg>
